<svg width="130" height="22" viewBox="0 0 130 22" fill="none" xmlns="http://www.w3.org/2000/svg">
<path d="M0.579125 17V0.199999H11.9791L11.9551 2.84H2.90713L3.62713 2.096L3.65113 17H0.579125ZM16.5014 17.168C15.1894 17.168 14.0214 16.888 12.9974 16.328C11.9734 15.752 11.1654 14.968 10.5734 13.976C9.98144 12.984 9.68544 11.856 9.68544 10.592C9.68544 9.312 9.98144 8.184 10.5734 7.208C11.1654 6.216 11.9734 5.44 12.9974 4.88C14.0214 4.32 15.1894 4.04 16.5014 4.04C17.8294 4.04 19.0054 4.32 20.0294 4.88C21.0694 5.44 21.8774 6.208 22.4534 7.184C23.0454 8.16 23.3414 9.296 23.3414 10.592C23.3414 11.856 23.0454 12.984 22.4534 13.976C21.8774 14.968 21.0694 15.752 20.0294 16.328C19.0054 16.888 17.8294 17.168 16.5014 17.168ZM16.5014 14.6C17.2374 14.6 17.8934 14.44 18.4694 14.12C19.0454 13.8 19.4934 13.336 19.8134 12.728C20.1494 12.12 20.3174 11.408 20.3174 10.592C20.3174 9.76 20.1494 9.048 19.8134 8.456C19.4934 7.848 19.0454 7.384 18.4694 7.064C17.8934 6.744 17.2454 6.584 16.5254 6.584C15.7894 6.584 15.1334 6.744 14.5574 7.064C13.9974 7.384 13.5494 7.848 13.2134 8.456C12.8774 9.048 12.7094 9.76 12.7094 10.592C12.7094 11.408 12.8774 12.12 13.2134 12.728C13.5494 13.336 13.9974 13.8 14.5574 14.12C15.1334 14.44 15.7814 14.6 16.5014 14.6ZM32.1371 17.168C30.7931 17.168 29.5931 16.888 28.5371 16.328C27.4971 15.752 26.6811 14.968 26.0891 13.976C25.4971 12.984 25.2011 11.856 25.2011 10.592C25.2011 9.312 25.4971 8.184 26.0891 7.208C26.6811 6.216 27.4971 5.44 28.5371 4.88C29.5931 4.32 30.7931 4.04 32.1371 4.04C33.3851 4.04 34.4811 4.296 35.4251 4.808C36.3851 5.304 37.1131 6.04 37.6091 7.016L35.3051 8.36C34.9211 7.752 34.4491 7.304 33.8891 7.016C33.3451 6.728 32.7531 6.584 32.1131 6.584C31.3771 6.584 30.7131 6.744 30.1211 7.064C29.5291 7.384 29.0651 7.848 28.7291 8.456C28.3931 9.048 28.2251 9.76 28.2251 10.592C28.2251 11.424 28.3931 12.144 28.7291 12.752C29.0651 13.344 29.5291 13.8 30.1211 14.12C30.7131 14.44 31.3771 14.6 32.1131 14.6C32.7531 14.6 33.3451 14.456 33.8891 14.168C34.4491 13.88 34.9211 13.432 35.3051 12.824L37.6091 14.168C37.1131 15.128 36.3851 15.872 35.4251 16.4C34.4811 16.912 33.3851 17.168 32.1371 17.168ZM40.6104 17V0.199999H55.4664V17H52.3944V2.072L53.1144 2.84H42.9624L43.6824 2.072V17H40.6104ZM65.5796 17.168C64.2676 17.168 63.0996 16.888 62.0756 16.328C61.0516 15.752 60.2436 14.968 59.6516 13.976C59.0596 12.984 58.7636 11.856 58.7636 10.592C58.7636 9.312 59.0596 8.184 59.6516 7.208C60.2436 6.216 61.0516 5.44 62.0756 4.88C63.0996 4.32 64.2676 4.04 65.5796 4.04C66.9076 4.04 68.0836 4.32 69.1076 4.88C70.1476 5.44 70.9556 6.208 71.5316 7.184C72.1236 8.16 72.4196 9.296 72.4196 10.592C72.4196 11.856 72.1236 12.984 71.5316 13.976C70.9556 14.968 70.1476 15.752 69.1076 16.328C68.0836 16.888 66.9076 17.168 65.5796 17.168ZM65.5796 14.6C66.3156 14.6 66.9716 14.44 67.5476 14.12C68.1236 13.8 68.5716 13.336 68.8916 12.728C69.2276 12.12 69.3956 11.408 69.3956 10.592C69.3956 9.76 69.2276 9.048 68.8916 8.456C68.5716 7.848 68.1236 7.384 67.5476 7.064C66.9716 6.744 66.3236 6.584 65.6036 6.584C64.8676 6.584 64.2116 6.744 63.6356 7.064C63.0756 7.384 62.6276 7.848 62.2916 8.456C61.9556 9.048 61.7876 9.76 61.7876 10.592C61.7876 11.408 61.9556 12.12 62.2916 12.728C62.6276 13.336 63.0756 13.8 63.6356 14.12C64.2116 14.44 64.8596 14.6 65.5796 14.6ZM82.4872 17.168C81.4472 17.168 80.4952 16.928 79.6312 16.448C78.7832 15.968 78.1032 15.248 77.5912 14.288C77.0952 13.312 76.8472 12.08 76.8472 10.592C76.8472 9.088 77.0872 7.856 77.5672 6.896C78.0632 5.936 78.7352 5.224 79.5832 4.76C80.4312 4.28 81.3992 4.04 82.4872 4.04C83.7512 4.04 84.8632 4.312 85.8232 4.856C86.7992 5.4 87.5672 6.16 88.1272 7.136C88.7032 8.112 88.9912 9.264 88.9912 10.592C88.9912 11.92 88.7032 13.08 88.1272 14.072C87.5672 15.048 86.7992 15.808 85.8232 16.352C84.8632 16.896 83.7512 17.168 82.4872 17.168ZM75.3832 21.656V4.184H78.2392V7.208L78.1432 10.616L78.3832 14.024V21.656H75.3832ZM82.1512 14.6C82.8712 14.6 83.5112 14.44 84.0712 14.12C84.6472 13.8 85.1032 13.336 85.4392 12.728C85.7752 12.12 85.9432 11.408 85.9432 10.592C85.9432 9.76 85.7752 9.048 85.4392 8.456C85.1032 7.848 84.6472 7.384 84.0712 7.064C83.5112 6.744 82.8712 6.584 82.1512 6.584C81.4312 6.584 80.7832 6.744 80.2072 7.064C79.6312 7.384 79.1752 7.848 78.8392 8.456C78.5032 9.048 78.3352 9.76 78.3352 10.592C78.3352 11.408 78.5032 12.12 78.8392 12.728C79.1752 13.336 79.6312 13.8 80.2072 14.12C80.7832 14.44 81.4312 14.6 82.1512 14.6ZM94.1722 17V6.008L94.8682 6.728H89.6602V4.184H101.66V6.728H96.4762L97.1722 6.008V17H94.1722ZM111.612 17V14.408L111.444 13.856V9.32C111.444 8.44 111.18 7.76 110.652 7.28C110.124 6.784 109.324 6.536 108.252 6.536C107.532 6.536 106.82 6.648 106.116 6.872C105.428 7.096 104.844 7.408 104.364 7.808L103.188 5.624C103.876 5.096 104.692 4.704 105.636 4.448C106.596 4.176 107.588 4.04 108.612 4.04C110.468 4.04 111.9 4.488 112.908 5.384C113.932 6.264 114.444 7.632 114.444 9.488V17H111.612ZM107.58 17.168C106.62 17.168 105.78 17.008 105.06 16.688C104.34 16.352 103.78 15.896 103.38 15.32C102.996 14.728 102.804 14.064 102.804 13.328C102.804 12.608 102.972 11.96 103.308 11.384C103.66 10.808 104.228 10.352 105.012 10.016C105.796 9.68 106.836 9.512 108.132 9.512H111.852V11.504H108.348C107.324 11.504 106.636 11.672 106.284 12.008C105.932 12.328 105.756 12.728 105.756 13.208C105.756 13.752 105.972 14.184 106.404 14.504C106.836 14.824 107.436 14.984 108.204 14.984C108.94 14.984 109.596 14.816 110.172 14.48C110.764 14.144 111.188 13.648 111.444 12.992L111.948 14.792C111.66 15.544 111.14 16.128 110.388 16.544C109.652 16.96 108.716 17.168 107.58 17.168ZM116.285 16.976L116.429 14.456C116.541 14.472 116.645 14.488 116.741 14.504C116.837 14.52 116.925 14.528 117.005 14.528C117.501 14.528 117.885 14.376 118.157 14.072C118.429 13.768 118.629 13.36 118.757 12.848C118.901 12.32 118.997 11.736 119.045 11.096C119.109 10.44 119.157 9.784 119.189 9.128L119.405 4.184H129.773V17H126.773V5.912L127.469 6.728H121.373L122.021 5.888L121.853 9.272C121.805 10.408 121.709 11.464 121.565 12.44C121.437 13.4 121.229 14.24 120.941 14.96C120.669 15.68 120.285 16.24 119.789 16.64C119.309 17.04 118.693 17.24 117.941 17.24C117.701 17.24 117.437 17.216 117.149 17.168C116.877 17.12 116.589 17.056 116.285 16.976Z" fill="#143261"/>
</svg>
